<svg width="824" height="824" viewBox="0 0 824 824" fill="none" xmlns="http://www.w3.org/2000/svg">
<path d="M475.638 356.29C509.283 388.396 507.505 442.683 473.841 474.767C412.896 532.853 359.947 566.645 279.43 589.571C238.471 601.232 195.665 577.701 183.429 536.272C159.958 456.798 160.065 389.763 183.75 302.949C195.816 258.724 241.401 233.468 284.563 246.868C363.607 271.407 420.788 303.949 475.638 356.29Z" fill="#B61B85"/>
<path d="M729.412 331.05C774.539 373.392 772.155 444.988 727.002 487.302C645.257 563.908 574.236 608.474 466.239 638.709C411.302 654.089 353.886 623.055 337.475 568.417C305.992 463.604 306.135 375.196 337.904 260.702C354.088 202.376 415.232 169.067 473.124 186.739C579.146 219.104 655.842 262.02 729.412 331.05Z" fill="#073DFF"/>
<path d="M70.9585 342.937C78.6368 314.095 107.645 297.623 135.112 306.362C151.053 311.434 165.597 317.032 179.139 323.397C178.955 323.311 178.772 323.224 178.587 323.137C162.198 392.003 161.696 449.254 177.082 512.709C177.444 512.533 177.805 512.356 178.166 512.178C164.121 519.081 148.962 524.869 131.845 529.864C105.781 537.469 78.5406 522.123 70.7544 495.104C55.8179 443.273 55.886 399.555 70.9585 342.937ZM182.18 510.159C180.998 510.767 179.808 511.368 178.61 511.96C179.808 511.368 180.998 510.767 182.18 510.159ZM186.025 508.137C184.862 508.763 183.691 509.379 182.513 509.987C183.691 509.379 184.862 508.763 186.025 508.137ZM189.851 506.036C188.711 506.675 187.565 507.306 186.413 507.928C187.565 507.306 188.711 506.675 189.851 506.036ZM193.793 503.776C192.62 504.464 191.439 505.142 190.252 505.81C191.439 505.142 192.62 504.464 193.793 503.776ZM197.582 501.51C196.389 502.237 195.191 502.956 193.987 503.663C195.191 502.956 196.389 502.237 197.582 501.51ZM201.178 499.272C200.507 499.698 199.834 500.12 199.16 500.539C199.834 500.12 200.507 499.698 201.178 499.272ZM204.718 496.985C203.638 497.696 202.553 498.398 201.464 499.091C202.553 498.398 203.638 497.696 204.718 496.985ZM208.194 494.657C207.774 494.943 207.354 495.227 206.933 495.51C207.354 495.227 207.774 494.943 208.194 494.657ZM212.06 491.97C211.445 492.406 210.828 492.839 210.21 493.268C210.828 492.839 211.444 492.406 212.06 491.97ZM215.055 489.819C214.729 490.057 214.402 490.294 214.075 490.53C214.402 490.294 214.729 490.057 215.055 489.819ZM218.891 486.972C218.421 487.327 217.951 487.68 217.48 488.031C217.951 487.68 218.421 487.327 218.891 486.972ZM221.929 484.649C221.974 484.614 222.019 484.579 222.064 484.544C222.019 484.579 221.974 484.614 221.929 484.649ZM271.838 421.638H271.839H271.838ZM272.196 416.364C272.187 416.804 272.173 417.244 272.154 417.684C272.173 417.244 272.187 416.804 272.196 416.364ZM271.284 405.208C271.445 406.072 271.585 406.94 271.704 407.811C271.585 406.941 271.445 406.073 271.284 405.209V405.208ZM269.037 396.93C269.711 398.799 270.278 400.701 270.737 402.627C270.635 402.199 270.527 401.773 270.415 401.347C270.358 401.135 270.301 400.922 270.242 400.71C270.065 400.073 269.876 399.44 269.675 398.809C269.608 398.599 269.541 398.39 269.471 398.18C269.332 397.762 269.186 397.346 269.037 396.93ZM267.543 393.239C267.635 393.441 267.725 393.644 267.813 393.847L268.074 394.459C267.902 394.051 267.726 393.644 267.543 393.24V393.239ZM263.681 386.199C264.793 387.894 265.796 389.641 266.688 391.433L266.981 392.032C266.016 390.03 264.916 388.082 263.681 386.199ZM256.705 377.725L256.706 377.724C258.88 379.851 260.822 382.127 262.534 384.522C260.822 382.127 258.879 379.852 256.705 377.725ZM247.822 369.348C249.252 370.647 250.678 371.966 252.1 373.305C250.678 371.966 249.252 370.647 247.822 369.348ZM244.769 366.613C245.647 367.39 246.524 368.174 247.399 368.966C246.524 368.174 245.647 367.39 244.769 366.613ZM241.247 363.546C241.609 363.857 241.972 364.169 242.334 364.482C241.972 364.169 241.609 363.857 241.247 363.546ZM238.295 361.048C238.445 361.173 238.594 361.298 238.744 361.424C238.594 361.298 238.445 361.173 238.295 361.048ZM234.773 358.155C235.075 358.399 235.376 358.644 235.677 358.889C235.376 358.644 235.075 358.399 234.773 358.155ZM215.962 344.233C216.148 344.358 216.332 344.485 216.517 344.61C216.332 344.485 216.148 344.358 215.962 344.233ZM199.369 333.905C199.684 334.085 199.998 334.266 200.312 334.448C199.998 334.266 199.684 334.085 199.369 333.905ZM198.877 500.714C198.489 500.954 198.101 501.193 197.711 501.431C198.101 501.193 198.489 500.954 198.877 500.714Z" fill="#F3AD12"/>
<path d="M178.588 323.137C208.02 336.898 232.713 354.261 256.706 377.725C278.116 398.664 276.985 434.068 255.563 454.993C229.404 480.544 205.558 498.886 177.083 512.709C161.698 449.254 162.199 392.003 178.588 323.137Z" fill="#FF007B"/>
<path d="M336.585 265.509C390.172 287.678 433.591 316.166 475.638 356.291C509.282 388.396 507.505 442.682 473.841 474.767C428.863 517.635 388.239 547.269 337.675 569.071C337.608 568.853 337.541 568.636 337.475 568.417C306.435 465.076 306.138 377.681 336.585 265.509Z" fill="#C401FF"/>
</svg>
