<svg width="1275" height="190" viewBox="0 0 1275 190" fill="none" xmlns="http://www.w3.org/2000/svg">
<g clip-path="url(#clip0_2413_50)">
<path d="M171.028 72.2381C184.859 85.4365 184.128 107.753 170.289 120.943C145.235 144.821 123.468 158.713 90.3684 168.137C73.5308 172.931 55.9335 163.258 50.9036 146.227C41.2547 113.556 41.2986 85.9986 51.0354 50.3103C55.9956 32.1297 74.7353 21.7471 92.4786 27.2557C124.973 37.3437 148.479 50.7212 171.028 72.2381Z" fill="#B61B85"/>
<path d="M275.351 61.8622C293.902 79.2688 292.922 108.701 274.36 126.096C240.756 157.588 211.56 175.909 167.164 188.338C144.579 194.66 120.976 181.903 114.23 159.441C101.288 116.354 101.346 80.0101 114.406 32.9431C121.059 8.96574 146.195 -4.72719 169.994 2.53771C213.578 15.8422 245.107 33.4849 275.351 61.8622Z" fill="#0739FF"/>
<path d="M4.66772 66.7495C7.82418 54.8927 19.7496 48.1211 31.0408 51.7134C37.5042 53.7699 43.409 56.0366 48.9109 58.6089C42.1733 86.919 41.9697 110.455 48.2947 136.541C50.0905 135.669 51.8408 134.752 53.5574 133.789C46.4415 137.782 38.7337 140.957 29.698 143.593C18.9833 146.72 7.78553 140.41 4.58472 129.303C-1.55546 107.996 -1.52829 90.0243 4.66772 66.7495ZM54.7273 133.123C56.0816 132.338 57.4154 131.523 58.7341 130.675C57.4154 131.523 56.0816 132.338 54.7273 133.123ZM59.864 129.938C60.4817 129.529 61.0966 129.114 61.7087 128.69C61.0966 129.114 60.4817 129.529 59.864 129.938ZM75.0466 118.001C74.8019 118.223 74.5575 118.443 74.3132 118.662C74.5575 118.443 74.8019 118.223 75.0466 118.001ZM80.9636 112.406V112.407V112.406ZM82.8123 110.248H82.8132H82.8123ZM86.1697 103.89C86.0518 104.237 85.9255 104.581 85.7908 104.922C85.9255 104.581 86.0518 104.237 86.1697 103.89ZM84.1931 85.0015V85.0005V85.0015ZM81.825 81.8735L82.2039 82.2983C82.0195 82.086 81.8289 81.8778 81.6345 81.6714C81.6981 81.7389 81.7625 81.8054 81.825 81.8735Z" fill="#F3AD12"/>
<path d="M48.912 58.6084C61.0116 64.2654 71.1637 71.4035 81.0272 81.0498C89.8285 89.6575 89.363 104.212 80.5565 112.813C69.8027 123.317 60.0003 130.858 48.2948 136.54C41.9698 110.454 42.1743 86.9187 48.912 58.6084Z" fill="#EA319A"/>
<path d="M113.864 34.9189C135.893 44.0321 153.742 55.7434 171.027 72.2383C184.858 85.4367 184.128 107.754 170.289 120.943C151.799 138.566 135.099 150.747 114.313 159.709C114.286 159.62 114.256 159.531 114.229 159.441C101.469 116.959 101.347 81.0318 113.864 34.9189Z" fill="#B301FF"/>
<path d="M828.599 152.62C822.949 152.62 817.986 151.538 813.709 149.373C809.432 147.155 806.079 144.119 803.65 140.264C801.274 136.356 800.085 131.921 800.085 126.957V126.799C800.085 121.624 801.379 117.215 803.967 113.572C806.554 109.875 810.303 106.971 815.214 104.859C820.124 102.747 826.091 101.453 833.114 100.978L866.222 98.9186V113.334L836.599 115.235C832.164 115.499 828.784 116.555 826.461 118.403C824.138 120.199 822.976 122.601 822.976 125.611V125.769C822.976 128.885 824.164 131.34 826.54 133.135C828.916 134.878 832.111 135.749 836.124 135.749C839.556 135.749 842.619 135.089 845.312 133.769C848.058 132.396 850.196 130.548 851.728 128.225C853.312 125.849 854.104 123.182 854.104 120.225V94.4831C854.104 90.734 852.916 87.777 850.539 85.612C848.163 83.3943 844.705 82.2854 840.163 82.2854C835.834 82.2854 832.401 83.1831 829.867 84.9784C827.332 86.7737 825.774 89.0443 825.194 91.7901L825.035 92.5029H803.887L803.967 91.5525C804.389 86.3249 806.105 81.6782 809.115 77.6123C812.178 73.5464 816.402 70.3782 821.788 68.1076C827.227 65.7842 833.669 64.6226 841.114 64.6226C848.454 64.6226 854.817 65.8106 860.203 68.1868C865.588 70.5102 869.76 73.8104 872.717 78.0875C875.727 82.3646 877.232 87.3546 877.232 93.0574V151.274H854.104V138.601H853.628C852.044 141.505 849.985 144.013 847.45 146.125C844.969 148.184 842.144 149.795 838.975 150.957C835.807 152.066 832.349 152.62 828.599 152.62Z" fill="white"/>
<path d="M746.305 151.274V66.3651H769.433V81.1765H769.908C771.175 75.949 773.472 71.8831 776.799 68.9789C780.126 66.0747 784.271 64.6226 789.234 64.6226C790.502 64.6226 791.716 64.7018 792.878 64.8602C794.039 65.0186 795.043 65.2298 795.888 65.4938V85.8497C794.937 85.48 793.723 85.1896 792.244 84.9784C790.766 84.7144 789.182 84.5824 787.492 84.5824C783.69 84.5824 780.442 85.3216 777.75 86.8001C775.057 88.2786 772.997 90.4436 771.571 93.295C770.146 96.1464 769.433 99.6314 769.433 103.75V151.274H746.305Z" fill="white"/>
<path d="M694.821 153.016C686.161 153.016 678.716 151.247 672.485 147.709C666.254 144.119 661.449 139.023 658.07 132.423C654.743 125.822 653.08 118.007 653.08 108.978V108.899C653.08 99.8691 654.743 92.0541 658.07 85.4536C661.449 78.8004 666.175 73.6784 672.248 70.0877C678.373 66.4443 685.581 64.6226 693.871 64.6226C702.161 64.6226 709.316 66.3915 715.335 69.9293C721.408 73.4144 726.081 78.3515 729.355 84.7408C732.681 91.13 734.345 98.6018 734.345 107.156V114.284H664.406V99.7106H723.414L712.405 113.334V104.463C712.405 99.4994 711.639 95.3543 710.108 92.0277C708.577 88.6483 706.438 86.1137 703.692 84.424C700.999 82.7342 697.857 81.8894 694.267 81.8894C690.676 81.8894 687.481 82.7606 684.683 84.5032C681.937 86.2457 679.772 88.8067 678.188 92.1861C676.657 95.5128 675.891 99.605 675.891 104.463V113.413C675.891 118.113 676.657 122.126 678.188 125.452C679.772 128.779 682.016 131.34 684.92 133.135C687.825 134.878 691.283 135.749 695.296 135.749C698.465 135.749 701.21 135.248 703.534 134.244C705.857 133.241 707.758 131.974 709.237 130.442C710.715 128.911 711.718 127.353 712.246 125.769L712.405 125.294H733.632L733.394 126.165C732.761 129.281 731.52 132.423 729.672 135.591C727.824 138.759 725.315 141.663 722.147 144.303C719.032 146.944 715.203 149.056 710.662 150.64C706.174 152.224 700.894 153.016 694.821 153.016Z" fill="white"/>
<path d="M595.893 151.274L566.508 66.3657H591.22L608.962 130.839H609.438L626.942 66.3657H651.1L621.952 151.274H595.893Z" fill="white"/>
<path d="M525.163 153.016C516.503 153.016 509.058 151.247 502.827 147.709C496.596 144.119 491.791 139.023 488.411 132.423C485.085 125.822 483.421 118.007 483.421 108.978V108.899C483.421 99.8691 485.085 92.0541 488.411 85.4536C491.791 78.8004 496.517 73.6784 502.589 70.0877C508.714 66.4443 515.922 64.6226 524.212 64.6226C532.502 64.6226 539.657 66.3915 545.677 69.9293C551.749 73.4144 556.423 78.3515 559.696 84.7408C563.023 91.13 564.686 98.6018 564.686 107.156V114.284H494.748V99.7106H553.756L542.746 113.334V104.463C542.746 99.4994 541.981 95.3543 540.449 92.0277C538.918 88.6483 536.78 86.1137 534.034 84.424C531.341 82.7342 528.199 81.8894 524.608 81.8894C521.018 81.8894 517.823 82.7606 515.024 84.5032C512.279 86.2457 510.114 88.8067 508.53 92.1861C506.998 95.5128 506.233 99.605 506.233 104.463V113.413C506.233 118.113 506.998 122.126 508.53 125.452C510.114 128.779 512.358 131.34 515.262 133.135C518.166 134.878 521.625 135.749 525.638 135.749C528.806 135.749 531.552 135.248 533.875 134.244C536.199 133.241 538.1 131.974 539.578 130.442C541.057 128.911 542.06 127.353 542.588 125.769L542.746 125.294H563.974L563.736 126.165C563.102 129.281 561.861 132.423 560.013 135.591C558.165 138.759 555.657 141.663 552.489 144.303C549.373 146.944 545.545 149.056 541.004 150.64C536.516 152.224 531.235 153.016 525.163 153.016Z" fill="white"/>
<path d="M447.779 151.274V36.98H470.907V151.274H447.779Z" fill="white"/>
<path d="M384.414 153.254C373.273 153.254 363.61 150.878 355.425 146.125C347.293 141.373 341.01 134.588 336.574 125.77C332.191 116.899 330 106.338 330 94.0874V94.0082C330 81.7049 332.218 71.1706 336.653 62.4051C341.089 53.5869 347.372 46.828 355.504 42.1285C363.636 37.3762 373.273 35 384.414 35C393.655 35 401.892 36.7953 409.126 40.386C416.361 43.9766 422.169 48.9138 426.552 55.1974C430.934 61.4283 433.495 68.6096 434.235 76.7414L434.314 77.4542H411.027L410.711 76.1077C409.813 71.8834 408.202 68.2136 405.879 65.0981C403.556 61.9827 400.572 59.5801 396.929 57.8904C393.338 56.1479 389.167 55.2766 384.414 55.2766C378.289 55.2766 372.982 56.8343 368.494 59.9498C364.006 63.0652 360.521 67.5271 358.039 73.3355C355.61 79.0911 354.395 85.9556 354.395 93.929V94.0082C354.395 102.034 355.61 108.978 358.039 114.839C360.521 120.648 364.006 125.136 368.494 128.304C373.035 131.42 378.342 132.977 384.414 132.977C389.008 132.977 393.1 132.132 396.691 130.443C400.335 128.753 403.371 126.324 405.8 123.156C408.229 119.935 409.945 116.054 410.948 111.513L411.107 110.721H434.393L434.314 111.592C433.575 119.671 430.987 126.852 426.552 133.136C422.169 139.419 416.361 144.357 409.126 147.947C401.892 151.485 393.655 153.254 384.414 153.254Z" fill="white"/>
<path d="M974.787 154H941.906V41.7653H976.76C987.465 41.7653 996.617 43.994 1004.22 48.4512C1011.85 52.9084 1017.7 59.302 1021.75 67.6319C1025.81 75.9618 1027.84 85.9541 1027.84 97.6087C1027.84 109.373 1025.75 119.475 1021.59 127.914C1017.46 136.317 1011.43 142.766 1003.5 147.259C995.612 151.753 986.04 154 974.787 154ZM952.154 144.793H974.185C983.83 144.793 991.904 142.893 998.407 139.094C1004.91 135.294 1009.79 129.869 1013.04 122.818C1016.29 115.766 1017.92 107.363 1017.92 97.6087C1017.88 87.927 1016.27 79.597 1013.09 72.6189C1009.95 65.6408 1005.28 60.2884 999.065 56.5619C992.89 52.8354 985.255 50.9721 976.157 50.9721H952.154V144.793ZM1077.19 155.754C1069.92 155.754 1063.49 153.909 1057.9 150.219C1052.35 146.529 1048 141.432 1044.86 134.929C1041.72 128.389 1040.14 120.845 1040.14 112.296C1040.14 103.673 1041.72 96.0925 1044.86 89.5527C1048 82.9765 1052.35 77.8616 1057.9 74.2082C1063.49 70.5182 1069.92 68.6732 1077.19 68.6732C1084.46 68.6732 1090.87 70.5182 1096.43 74.2082C1101.98 77.8982 1106.33 83.013 1109.47 89.5527C1112.65 96.0925 1114.24 103.673 1114.24 112.296C1114.24 120.845 1112.67 128.389 1109.52 134.929C1106.38 141.432 1102.02 146.529 1096.43 150.219C1090.87 153.909 1084.46 155.754 1077.19 155.754ZM1077.19 146.821C1083.04 146.821 1087.99 145.25 1092.04 142.108C1096.1 138.966 1099.17 134.783 1101.25 129.558C1103.37 124.334 1104.43 118.58 1104.43 112.296C1104.43 106.012 1103.37 100.239 1101.25 94.9782C1099.17 89.7172 1096.1 85.4974 1092.04 82.3189C1087.99 79.1404 1083.04 77.5511 1077.19 77.5511C1071.38 77.5511 1066.43 79.1404 1062.34 82.3189C1058.28 85.4974 1055.2 89.7172 1053.08 94.9782C1051 100.239 1049.95 106.012 1049.95 112.296C1049.95 118.58 1051 124.334 1053.08 129.558C1055.2 134.783 1058.28 138.966 1062.34 142.108C1066.4 145.25 1071.35 146.821 1077.19 146.821ZM1162.36 155.754C1154.83 155.754 1148.28 153.872 1142.69 150.109C1137.13 146.346 1132.82 141.195 1129.75 134.655C1126.68 128.115 1125.15 120.662 1125.15 112.296C1125.15 103.856 1126.7 96.3482 1129.81 89.772C1132.95 83.1957 1137.3 78.0443 1142.85 74.3178C1148.4 70.5547 1154.85 68.6732 1162.2 68.6732C1167.82 68.6732 1172.92 69.7692 1177.48 71.9613C1182.05 74.1168 1185.81 77.1675 1188.77 81.1132C1191.77 85.0224 1193.65 89.5893 1194.42 94.8137H1184.55C1183.53 90.0642 1181.07 86.0089 1177.16 82.6477C1173.28 79.25 1168.35 77.5511 1162.36 77.5511C1156.99 77.5511 1152.24 79.0125 1148.11 81.9353C1143.98 84.8215 1140.75 88.8586 1138.41 94.0465C1136.11 99.1979 1134.96 105.171 1134.96 111.967C1134.96 118.799 1136.09 124.845 1138.36 130.106C1140.62 135.331 1143.8 139.423 1147.89 142.382C1152.02 145.341 1156.84 146.821 1162.36 146.821C1166.09 146.821 1169.48 146.127 1172.55 144.738C1175.66 143.314 1178.25 141.304 1180.33 138.71C1182.45 136.116 1183.88 133.029 1184.61 129.449H1194.47C1193.74 134.527 1191.93 139.057 1189.05 143.04C1186.2 146.985 1182.49 150.091 1177.92 152.356C1173.39 154.621 1168.21 155.754 1162.36 155.754ZM1265.76 88.2923L1256.83 90.8132C1255.95 88.2923 1254.71 86.0089 1253.1 83.9629C1251.5 81.917 1249.4 80.2912 1246.8 79.0856C1244.24 77.8799 1241.07 77.2771 1237.27 77.2771C1231.57 77.2771 1226.89 78.6289 1223.24 81.3324C1219.58 84.036 1217.76 87.5251 1217.76 91.7996C1217.76 95.4166 1219 98.3576 1221.48 100.623C1224 102.851 1227.88 104.623 1233.1 105.939L1245.82 109.062C1252.87 110.779 1258.15 113.501 1261.65 117.228C1265.2 120.954 1266.97 125.631 1266.97 131.257C1266.97 136.007 1265.65 140.226 1263.02 143.916C1260.39 147.606 1256.72 150.511 1252.01 152.63C1247.33 154.712 1241.91 155.754 1235.73 155.754C1227.51 155.754 1220.73 153.909 1215.4 150.219C1210.07 146.492 1206.65 141.122 1205.15 134.107L1214.52 131.805C1215.73 136.81 1218.09 140.592 1221.59 143.149C1225.14 145.707 1229.8 146.985 1235.57 146.985C1242.03 146.985 1247.2 145.542 1251.08 142.656C1254.95 139.733 1256.89 136.08 1256.89 131.696C1256.89 128.298 1255.75 125.448 1253.49 123.146C1251.22 120.808 1247.79 119.091 1243.19 117.995L1229.43 114.707C1222.12 112.953 1216.72 110.177 1213.21 106.377C1209.7 102.577 1207.95 97.8644 1207.95 92.2381C1207.95 87.5981 1209.21 83.5245 1211.73 80.0172C1214.25 76.4733 1217.72 73.6967 1222.14 71.6873C1226.56 69.6779 1231.6 68.6732 1237.27 68.6732C1244.98 68.6732 1251.13 70.4268 1255.73 73.9342C1260.37 77.405 1263.72 82.191 1265.76 88.2923Z" fill="white"/>
</g>
<defs>
<clipPath id="clip0_2413_50">
<rect width="1275" height="190" fill="white"/>
</clipPath>
</defs>
</svg>
